<svg width="13" height="16" viewBox="0 0 13 16" fill="none" xmlns="http://www.w3.org/2000/svg">
<path d="M11.6666 14.0001H4.33331V4.66675H11.6666V14.0001ZM11.6666 3.33341H4.33331C3.97969 3.33341 3.64055 3.47389 3.3905 3.72394C3.14046 3.97399 2.99998 4.31313 2.99998 4.66675V14.0001C2.99998 14.3537 3.14046 14.6928 3.3905 14.9429C3.64055 15.1929 3.97969 15.3334 4.33331 15.3334H11.6666C12.0203 15.3334 12.3594 15.1929 12.6095 14.9429C12.8595 14.6928 13 14.3537 13 14.0001V4.66675C13 4.31313 12.8595 3.97399 12.6095 3.72394C12.3594 3.47389 12.0203 3.33341 11.6666 3.33341V3.33341ZM9.66665 0.666748H1.66665C1.31302 0.666748 0.973886 0.807224 0.723837 1.05727C0.473789 1.30732 0.333313 1.64646 0.333313 2.00008V11.3334H1.66665V2.00008H9.66665V0.666748Z" fill="white" fill-opacity="0.8"/>
</svg>
