<svg width="25" height="24" viewBox="0 0 25 24" fill="none" xmlns="http://www.w3.org/2000/svg">
<g clip-path="url(#clip0_32_679)">
<path fill-rule="evenodd" clip-rule="evenodd" d="M24.1477 12C24.1477 18.6274 18.7751 24 12.1477 24C5.52029 24 0.147705 18.6274 0.147705 12C0.147705 5.37258 5.52029 0 12.1477 0C18.7751 0 24.1477 5.37258 24.1477 12ZM12.5777 8.85893C11.4106 9.3444 9.07784 10.3492 5.5796 11.8733C5.01154 12.0992 4.71396 12.3202 4.68687 12.5363C4.64109 12.9015 5.09842 13.0453 5.72118 13.2411C5.80589 13.2678 5.89366 13.2954 5.98364 13.3246C6.59634 13.5238 7.42053 13.7568 7.84899 13.766C8.23765 13.7744 8.67143 13.6142 9.15035 13.2853C12.4189 11.079 14.1061 9.96381 14.212 9.93977C14.2867 9.92281 14.3903 9.90148 14.4605 9.96385C14.5306 10.0262 14.5237 10.1443 14.5163 10.176C14.471 10.3691 12.6758 12.0381 11.7468 12.9018C11.4572 13.171 11.2518 13.362 11.2098 13.4056C11.1157 13.5033 11.0198 13.5958 10.9277 13.6846C10.3585 14.2333 9.93162 14.6448 10.9513 15.3168C11.4413 15.6397 11.8335 15.9067 12.2247 16.1731C12.6519 16.4641 13.078 16.7543 13.6293 17.1157C13.7698 17.2077 13.9039 17.3034 14.0346 17.3965C14.5318 17.751 14.9785 18.0694 15.5303 18.0186C15.8509 17.9891 16.1822 17.6876 16.3504 16.7884C16.7479 14.6631 17.5293 10.0585 17.7099 8.16097C17.7257 7.99473 17.7058 7.78197 17.6899 7.68857C17.6739 7.59518 17.6405 7.46211 17.5191 7.3636C17.3753 7.24694 17.1533 7.22234 17.0541 7.22408C16.6027 7.23203 15.9103 7.47282 12.5777 8.85893Z" fill="white"/>
</g>
<defs>
<clipPath id="clip0_32_679">
<rect width="24" height="24" fill="white" transform="translate(0.147705)"/>
</clipPath>
</defs>
</svg>
