<svg width="42" height="43" viewBox="0 0 42 43" fill="none" xmlns="http://www.w3.org/2000/svg">
<circle cx="21" cy="21.2916" r="21" fill="white"/>
<path fill-rule="evenodd" clip-rule="evenodd" d="M32.0017 21.3272C31.9995 21.4015 31.8982 21.4212 31.869 21.3526C31.8565 21.3231 31.8436 21.2934 31.8306 21.2637C31.8067 21.2094 31.8134 21.1463 31.849 21.0988C31.8563 21.0891 31.8714 21.0694 31.8893 21.046C31.9374 20.9831 32.0068 20.9925 32.0068 21.0623C32.0068 21.154 32.0046 21.2333 32.0017 21.3272ZM31.469 19.8724C31.387 20.0201 31.1767 20.0269 31.0856 19.8845C31.0714 19.8624 31.0572 19.8404 31.0428 19.8183C30.7145 19.3142 30.3367 18.8194 29.9147 18.3385C29.8111 18.2204 29.8958 18.0351 30.053 18.035H30.0568C31.0428 18.035 31.5598 18.2786 31.7176 18.576C31.8492 18.8248 31.8089 19.2598 31.469 19.8724ZM31.2486 25.0291C31.1958 25.1637 31.1404 25.2974 31.0822 25.4298C31.0732 25.4481 31.0646 25.4665 31.0552 25.4846C30.6923 26.1832 30.0833 26.7333 29.2695 27.1161C29.0869 27.2019 28.8871 27.0348 28.9415 26.8406C29.2117 25.8734 29.4162 24.8245 29.5488 23.7249C29.5735 23.5198 29.6746 23.3316 29.8309 23.1965C30.1655 22.9069 30.4781 22.6178 30.7656 22.3307L30.7687 22.3275C30.9102 22.1863 31.1515 22.2471 31.2091 22.4385C31.4932 23.3828 31.5089 24.2622 31.2486 25.0291ZM29.0365 28.521C28.9537 28.6095 28.8692 28.6969 28.7831 28.7831C28.633 28.9329 28.4795 29.0778 28.3226 29.2178C28.2236 29.3059 28.0739 29.1956 28.1299 29.0754C28.1459 29.0411 28.1618 29.0066 28.1775 28.9717C28.2434 28.8263 28.3071 28.6772 28.3691 28.5252C28.3837 28.4894 28.4146 28.4626 28.4522 28.453C28.6082 28.4134 28.7604 28.3697 28.9086 28.3219C29.0287 28.2833 29.1228 28.4289 29.0365 28.521ZM27.4119 27.6479C27.0834 27.6955 26.7379 27.7263 26.3765 27.739C25.4947 27.7699 24.5622 27.6938 23.6044 27.5175C23.4877 27.496 23.4652 27.3381 23.5711 27.2846C23.78 27.1788 23.9891 27.0707 24.198 26.9599C25.6636 26.1831 27.0311 25.334 28.2281 24.4634C28.3179 24.3981 28.4416 24.4751 28.4234 24.5847C28.2574 25.5824 28.0275 26.5217 27.7388 27.3742C27.6896 27.5195 27.5638 27.6259 27.4119 27.6479ZM27.0731 28.9772C26.2874 30.5227 25.3196 31.3903 24.3816 31.3729C23.362 31.3547 22.3454 30.293 21.5925 28.4602L21.5917 28.4581C21.5439 28.3418 21.5988 28.2086 21.7141 28.1585C21.7221 28.155 21.73 28.1515 21.738 28.1479C21.7875 28.1265 21.8429 28.1226 21.8949 28.1373C23.3032 28.5325 24.6908 28.7387 25.9908 28.7387C26.1321 28.7387 26.2724 28.7363 26.4115 28.7315C26.5743 28.7256 26.7346 28.7165 26.892 28.704C27.0381 28.6924 27.1396 28.8466 27.0731 28.9772ZM22.42 31.9161C21.9528 31.9761 21.4787 32.0069 20.9999 32.0069C18.8605 32.0069 16.8142 31.4006 15.0573 30.2693C14.9365 30.1913 14.9878 30.0038 15.1315 29.9972C15.1613 29.9958 15.1891 29.9943 15.2136 29.9928C15.6601 29.9637 16.1496 29.8983 16.68 29.7961C17.8084 29.5791 19.0626 29.2068 20.3759 28.7054C20.4937 28.6605 20.6251 28.7188 20.673 28.8354L20.6739 28.8375C21.1829 30.0766 21.8093 31.0129 22.5126 31.6086C22.6288 31.7071 22.5711 31.8967 22.42 31.9161ZM16.0549 24.204C17.0247 23.4143 18.1612 22.6262 19.4078 21.8802C19.4345 23.4746 19.6094 25.0054 19.9188 26.3881C19.4564 26.1909 18.9955 25.9737 18.5386 25.7364C17.6535 25.2765 16.8208 24.7612 16.0549 24.204ZM13.0385 28.4762C12.8072 28.0397 13.1062 27.0285 14.6254 25.4915L14.6262 25.4908C14.7848 25.3305 14.7696 25.0675 14.5925 24.928C14.5316 24.8802 14.4712 24.8318 14.4112 24.7835C14.2599 24.6612 14.0409 24.6724 13.9035 24.81C13.8734 24.8401 13.851 24.8628 13.8444 24.8696C13.085 25.6491 12.5534 26.3707 12.2557 27.0197C12.1713 27.2036 11.9164 27.2235 11.8048 27.0547C10.6262 25.273 9.9931 23.1853 9.9931 20.9999C9.9931 20.2187 10.0743 19.4499 10.2321 18.703C10.256 18.59 10.4154 18.5828 10.4489 18.6933C10.6772 19.4473 11.0489 20.2271 11.5625 21.0157C12.2538 22.0774 13.1656 23.0981 14.246 24.0343C14.6147 24.3538 15.0042 24.6629 15.4105 24.9611C16.2339 25.5654 17.1287 26.123 18.0807 26.6176C18.5026 26.8369 18.9136 27.0462 19.3345 27.2357C19.5688 27.3411 19.8355 27.3493 20.0746 27.2554C20.2731 27.1777 20.473 27.0969 20.674 27.0128C20.8927 26.9216 21.0113 26.6832 20.9533 26.4535C20.9461 26.4247 20.9404 26.4017 20.9371 26.3881C20.6057 24.9933 20.4215 23.4231 20.3998 21.7785L20.3991 21.7788C20.3989 21.7593 20.399 21.7394 20.3988 21.7197C20.3978 21.6298 20.3984 21.5392 20.3968 21.4495C20.3962 21.4209 20.3971 21.3725 20.3974 21.3438C20.3976 21.3323 20.3974 21.321 20.3974 21.3097L20.3978 21.3096C20.3984 21.2066 20.3991 21.1038 20.401 21.0005C20.4061 20.7184 20.4162 20.4383 20.4308 20.1605L20.4302 20.1609C20.5324 18.1763 20.8689 16.3115 21.4043 14.7428C21.4539 14.5977 21.3765 14.4401 21.2313 14.3906C21.0898 14.3422 20.9485 14.2961 20.8073 14.2518C20.6645 14.207 20.5119 14.2841 20.4637 14.4258C19.8834 16.1293 19.5253 18.1504 19.4298 20.2891C19.4176 20.5604 19.27 20.8073 19.0363 20.9458C17.7696 21.6965 16.6063 22.4923 15.6014 23.2945C15.392 23.4616 15.0929 23.4553 14.8905 23.2797C13.8833 22.4064 13.0355 21.4579 12.3947 20.4737C11.1353 18.54 10.8361 16.7183 11.5522 15.3451C11.5542 15.3418 11.5559 15.3385 11.5577 15.3353C11.6491 15.1838 11.744 15.0343 11.8429 14.8869C12.6658 13.7977 14.1974 13.1664 16.2287 13.0951C16.3573 13.0906 16.4867 13.0883 16.6172 13.0883C17.8632 13.0883 19.2003 13.2939 20.5603 13.6863L20.5606 13.686C20.5904 13.6946 20.6202 13.7036 20.65 13.7123C20.6729 13.7191 20.6959 13.7255 20.7189 13.7324C21.0332 13.8263 21.3483 13.9304 21.6639 14.0439C21.6712 14.0465 21.6787 14.0492 21.686 14.0518C21.7682 14.0815 21.8504 14.1119 21.9325 14.1429C21.9582 14.1526 21.984 14.1624 22.0097 14.1724C22.0344 14.1819 22.0591 14.191 22.0839 14.2006L22.0836 14.2011C22.7477 14.4582 23.4114 14.7571 24.0667 15.0977C25.3351 15.7567 26.4961 16.5292 27.5064 17.3767C25.5782 17.8184 23.3369 18.6706 21.0834 19.8195C20.9794 19.8726 20.911 19.9771 20.9044 20.0936C20.8966 20.2333 20.8862 20.5141 20.8787 20.7373C20.8741 20.8773 21.0223 20.9702 21.1464 20.905L21.1477 20.9042C23.3789 19.7326 25.6056 18.8569 27.5179 18.3942C27.8753 18.3077 28.1067 17.9644 28.0565 17.6002C28.0213 17.3457 27.9817 17.0952 27.9379 16.8492C27.8829 16.5401 27.7137 16.2637 27.4639 16.0735C26.5683 15.3912 25.5812 14.7654 24.5246 14.2163C23.8125 13.8463 23.09 13.5221 22.3659 13.2456C22.211 13.1865 22.1447 13.0035 22.2255 12.8587C22.9715 11.5243 23.8587 10.7769 24.723 10.7769C24.732 10.7769 24.741 10.7769 24.7499 10.7772C25.7694 10.7954 26.7861 11.857 27.5389 13.6899C27.92 14.6177 28.2153 15.6876 28.4171 16.8503C28.416 16.8494 28.4149 16.8485 28.414 16.8475C28.5001 17.3438 28.5695 17.8566 28.621 18.3827C28.6165 18.3855 28.6118 18.388 28.6074 18.3908C28.6134 18.397 28.6198 18.4031 28.6259 18.4094C28.7113 19.2922 28.7473 20.2115 28.7305 21.1495C28.7199 21.7429 28.6883 22.328 28.6371 22.9006C27.2731 24.0029 25.5866 25.0999 23.7329 26.0823C23.1236 26.4052 22.5145 26.7058 21.9113 26.9825C21.902 26.9868 21.8927 26.991 21.8833 26.9953C21.8372 27.0164 21.791 27.0377 21.7449 27.0586L21.7439 27.0583C21.2441 27.2843 20.749 27.4935 20.2622 27.6845L20.2624 27.685C20.2349 27.6957 20.2076 27.7061 20.1802 27.7168C20.146 27.7302 20.1117 27.7433 20.0776 27.7565C19.9959 27.7878 19.9146 27.8187 19.8334 27.849C19.8111 27.8573 19.7886 27.866 19.7663 27.8742C19.6678 27.9108 19.5698 27.9463 19.4721 27.9813C19.4599 27.9856 19.4477 27.9903 19.4356 27.9946L19.4352 27.9944C18.3919 28.3659 17.3981 28.6466 16.4924 28.8209C14.3038 29.2423 13.2733 28.919 13.0385 28.4762ZM14.6104 12.0353C16.4628 10.7088 18.6763 9.9931 20.9999 9.9931C21.6133 9.9931 22.2187 10.0433 22.812 10.1412C22.9708 10.1674 23.0241 10.3702 22.8974 10.4696C22.3225 10.9203 21.7884 11.5871 21.3157 12.4519C21.2004 12.6629 20.9557 12.766 20.7243 12.7009C19.1583 12.26 17.6175 12.0526 16.1939 12.1025C15.6687 12.121 15.1714 12.1742 14.7042 12.2603C14.573 12.2845 14.502 12.1129 14.6104 12.0353ZM29.7193 20.0571C29.716 19.931 29.8779 19.8771 29.9511 19.9799C30.041 20.106 30.1277 20.2328 30.2106 20.3603C30.3209 20.5297 30.4236 20.6982 30.519 20.8656C30.5784 20.9699 30.5642 21.1009 30.4833 21.1896C30.3547 21.3307 30.2153 21.4766 30.0639 21.6279C30.0086 21.6831 29.9523 21.7383 29.8949 21.7937C29.8236 21.8626 29.7042 21.8101 29.7081 21.711C29.7151 21.5305 29.7203 21.3493 29.7235 21.1672C29.7302 20.7942 29.7286 20.424 29.7193 20.0571ZM28.5778 13.017C28.647 13.0826 28.7154 13.1493 28.7831 13.2169C29.8437 14.2776 30.6607 15.517 31.207 16.8668C31.2621 17.0028 31.1465 17.1453 31.002 17.1193C30.6859 17.0625 30.3302 17.0372 29.9364 17.0437C29.6635 17.0483 29.4263 16.857 29.3784 16.5883C29.1643 15.3883 28.8549 14.2799 28.4576 13.3125C28.4349 13.2573 28.412 13.2028 28.3888 13.1488C28.3383 13.0311 28.4849 12.9287 28.5778 13.017ZM32.7408 18.5041C32.2666 16.2511 31.1515 14.1809 29.4852 12.5146C27.2187 10.2481 24.2053 9 20.9999 9C17.7947 9 14.7812 10.2481 12.5147 12.5146C11.9634 13.0658 11.4731 13.6615 11.0457 14.293C10.9185 14.4623 10.8047 14.641 10.7034 14.828C9.59303 16.6731 9 18.791 9 20.9999C9 24.2053 10.2482 27.2187 12.5147 29.4852C14.7812 31.7517 17.7947 33 20.9999 33C24.2053 33 27.2187 31.7517 29.4852 29.4852C30.5549 28.4156 31.3975 27.1794 31.9893 25.8354C32.0616 25.6865 32.1248 25.534 32.179 25.3784C32.7178 24.0018 33 22.5226 33 20.9999C33 20.1618 32.9139 19.3372 32.7474 18.5352C32.7451 18.5249 32.743 18.5145 32.7408 18.5041Z" fill="black"/>
</svg>
