<svg width="42" height="43" viewBox="0 0 42 43" fill="none" xmlns="http://www.w3.org/2000/svg">
<circle cx="21" cy="21.2916" r="21" fill="white"/>
<path d="M27 13L23 17H26V25C26 25.5304 25.7893 26.0391 25.4142 26.4142C25.0391 26.7893 24.5304 27 24 27C23.4696 27 22.9609 26.7893 22.5858 26.4142C22.2107 26.0391 22 25.5304 22 25V17C22 15.9391 21.5786 14.9217 20.8284 14.1716C20.0783 13.4214 19.0609 13 18 13C16.9391 13 15.9217 13.4214 15.1716 14.1716C14.4214 14.9217 14 15.9391 14 17V25H11L15 29L19 25H16V17C16 16.4696 16.2107 15.9609 16.5858 15.5858C16.9609 15.2107 17.4696 15 18 15C18.5304 15 19.0391 15.2107 19.4142 15.5858C19.7893 15.9609 20 16.4696 20 17V25C20 26.0609 20.4214 27.0783 21.1716 27.8284C21.9217 28.5786 22.9391 29 24 29C25.0609 29 26.0783 28.5786 26.8284 27.8284C27.5786 27.0783 28 26.0609 28 25V17H31L27 13Z" fill="black"/>
</svg>
