<svg width="42" height="43" viewBox="0 0 42 43" fill="none" xmlns="http://www.w3.org/2000/svg">
<circle cx="21" cy="21.2916" r="21" fill="white"/>
<path d="M25 21C27.76 21 30 18.76 30 16C30 13.24 27.76 11 25 11C22.24 11 20 13.24 20 16C20 18.76 22.24 21 25 21ZM30.45 26.6C30.06 26.2 29.57 26 29 26H22L19.92 25.27L20.25 24.33L22 25H24.8C25.15 25 25.43 24.86 25.66 24.63C25.89 24.4 26 24.12 26 23.81C26 23.27 25.74 22.9 25.22 22.69L17.95 20H16V29L23 31L31.03 28C31.04 27.47 30.84 27 30.45 26.6ZM14 20H9.98401V31H14V20Z" fill="#0F1015"/>
</svg>
